<svg xmlns="http://www.w3.org/2000/svg" width="128" height="128" viewBox="0 0 10 10" version="1.1">
  <path
    d="M 0.0502 6.4142 L 1.4644 5 L 0.0502 3.5858 L 0.7573 2.8787 L 2.1715 4.2929 L 2.8786 3.5858 L 2.5251 3.2322 A 1.5 1.5 -45 0 1 4.6464 1.1109 L 5 1.4645 L 5.3535 1.1109 A 1.5 1.5 -45 0 1 7.4748 3.2322 L 7.1213 3.5858 L 7.8284 4.2929 L 9.2426 2.8787 L 9.9497 3.5858 L 8.5355 5 L 9.9497 6.4142 L 9.2426 7.1213 L 7.8284 5.7071 L 7.1213 6.4142 L 7.4748 6.7678 A 1.5 1.5 -45 0 1 5.3535 8.8891 L 5 8.5355 L 4.6464 8.8891 A 1.5 1.5 -45 0 1 2.5251 6.7678 L 2.8786 6.4142 L 2.1715 5.7071 L 0.7573 7.1213 L 0.0502 6.4142 M 3.5857 2.8787 L 4.2929 2.1716 L 3.9393 1.818 A 0.5 0.5 -45 0 0 3.2322 2.5251 L 3.5857 2.8787 M 3.5857 7.1213 L 3.2322 7.4749 A 0.5 0.5 -45 0 0 3.9393 8.182 L 4.2929 7.8284 L 3.5857 7.1213 M 5.7071 7.8284 L 6.0606 8.182 A 0.5 0.5 -45 0 0 6.7677 7.4749 L 6.4142 7.1213 L 5.7071 7.8284 M 6.4142 2.8787 L 6.7677 2.5251 A 0.5 0.5 -45 0 0 6.0606 1.818 L 5.7071 2.1716 L 6.4142 2.8787 M 5 2.8787 L 4.2929 3.5858 L 5 4.2929 L 5.7071 3.5858 L 5 2.8787 M 3.5857 4.2929 L 2.8786 5 L 3.5857 5.7071 L 4.2929 5 L 3.5857 4.2929 M 4.2929 6.4142 L 5 7.1213 L 5.7071 6.4142 L 5 5.7071 L 4.2929 6.4142 M 5.7071 5 L 6.4142 5.7071 L 7.1213 5 L 6.4142 4.2929 L 5.7071 5 M 1.4644 5 L 1.1109 5.3536 L 1.818 6.0607 L 2.1715 5.7071 L 1.4644 5 M 2.8786 6.4142 M 2.5251 3.9393 L 2.1715 4.2929 L 2.8786 5 L 3.2322 4.6464 L 2.5251 3.9393 M 4.2929 2.1716 L 3.9393 2.5251 L 4.6464 3.2322 L 5 2.8787 L 4.2929 2.1716 M 5.3535 1.1109 L 5 1.4645 L 5.7071 2.1716 L 6.0606 1.818 L 5.3535 1.1109 M 4.2929 5 L 3.9393 5.3536 L 4.6464 6.0607 L 5 5.7071 L 4.2929 5 M 5.3535 3.9393 L 5 4.2929 L 5.7071 5 L 6.0606 4.6464 L 5.3535 3.9393 M 4.2929 7.8284 L 3.9393 8.182 L 4.6464 8.8891 L 5 8.5355 L 4.2929 7.8284 M 5.3535 6.7678 L 5 7.1213 L 5.7071 7.8284 L 6.0606 7.4749 L 5.3535 6.7678 M 7.1213 5 L 6.7677 5.3536 L 7.4748 6.0607 L 7.8284 5.7071 L 7.1213 5 M 8.1819 3.9393 L 7.8284 4.2929 L 8.5355 5 L 8.889 4.6464 L 8.1819 3.9393 M 2.8786 6.4142 L 3.5857 5.7071 L 3.2322 5.3536 L 2.5251 6.0607 L 2.8786 6.4142 M 3.9393 7.4749 L 4.6464 6.7678 L 4.2929 6.4142 L 3.5857 7.1213 L 3.9393 7.4749 M 6.7677 7.4749 L 7.4748 6.7678 L 7.1213 6.4142 L 6.4142 7.1213 L 6.7677 7.4749 M 5.7071 6.4142 L 6.4142 5.7071 L 6.0606 5.3536 L 5.3535 6.0607 L 5.7071 6.4142 M 3.9393 4.6464 L 4.6464 3.9393 L 4.2929 3.5858 L 3.5857 4.2929 L 3.9393 4.6464 M 2.8786 3.5858 L 3.5857 2.8787 L 3.2322 2.5251 L 2.5251 3.2322 L 2.8786 3.5858 M 6.7677 4.6464 L 7.4748 3.9393 L 7.1213 3.5858 L 6.4142 4.2929 L 6.7677 4.6464 M 5.7071 3.5858 L 6.4142 2.8787 L 6.0606 2.5251 L 5.3535 3.2322 L 5.7071 3.5858"
    fill="orange" stroke="brown" stroke-width="0.1"
  />
</svg>